<?xml version="1.0" standalone="no"?><!DOCTYPE svg PUBLIC "-//W3C//DTD SVG 1.1//EN" "http://www.w3.org/Graphics/SVG/1.1/DTD/svg11.dtd"><svg t="1741657555670" class="icon" viewBox="0 0 1024 1024" version="1.1" xmlns="http://www.w3.org/2000/svg" p-id="5039" xmlns:xlink="http://www.w3.org/1999/xlink" width="200" height="200"><path d="M 920 737.7 h -78.36 V 488.22 c 0 -183 -114.38 -335 -265.88 -369 v -1.14 a 64 64 0 1 0 -128 0 v 1.14 c -151.5 34 -265.88 186 -265.88 369 V 737.7 H 104 a 40 40 0 0 0 0 80 h 248.19 a 160 160 0 0 0 319.62 0 H 920 a 40 40 0 0 0 0 -80 Z M 512 889.92 a 80 80 0 0 1 -79.62 -72.22 h 159.24 A 80 80 0 0 1 512 889.92 Z M 761.64 737.7 H 262 V 488.13 C 262 327.31 373.81 197 511.79 197 s 249.85 130.31 249.85 291.13 Z" fill="#5a5e66" p-id="5040"></path></svg>